<svg xmlns="http://www.w3.org/2000/svg" xmlns:xlink="http://www.w3.org/1999/xlink" contentStyleType="text/css" height="535px" preserveAspectRatio="none" style="width:483px;height:535px;background:#FFFFFF;" version="1.1" viewBox="0 0 483 535" width="483px" zoomAndPan="magnify"><defs/><g><rect fill="none" height="75.3984" style="stroke:#000000;stroke-width:1.5;" width="325" x="53" y="156.5625"/><rect fill="none" height="104.5313" style="stroke:#000000;stroke-width:1.5;" width="424.5" x="53" y="333.3594"/><line style="stroke:#181818;stroke-width:0.5;stroke-dasharray:5.0,5.0;" x1="29" x2="29" y1="81.2969" y2="454.8906"/><line style="stroke:#181818;stroke-width:0.5;stroke-dasharray:5.0,5.0;" x1="120" x2="120" y1="81.2969" y2="454.8906"/><line style="stroke:#181818;stroke-width:0.5;stroke-dasharray:5.0,5.0;" x1="222.5" x2="222.5" y1="81.2969" y2="454.8906"/><line style="stroke:#181818;stroke-width:0.5;stroke-dasharray:5.0,5.0;" x1="278.5" x2="278.5" y1="81.2969" y2="454.8906"/><line style="stroke:#181818;stroke-width:0.5;stroke-dasharray:5.0,5.0;" x1="376.5" x2="376.5" y1="81.2969" y2="454.8906"/><line style="stroke:#181818;stroke-width:0.5;stroke-dasharray:5.0,5.0;" x1="438.5" x2="438.5" y1="81.2969" y2="454.8906"/><text fill="#000000" font-family="sans-serif" font-size="14" lengthAdjust="spacing" textLength="42" x="5" y="77.9951">&#24320;&#21457;&#32773;</text><ellipse cx="29" cy="13.5" fill="#E2E2F0" rx="8" ry="8" style="stroke:#181818;stroke-width:0.5;"/><path d="M29,21.5 L29,48.5 M16,29.5 L42,29.5 M29,48.5 L16,63.5 M29,48.5 L42,63.5 " fill="none" style="stroke:#181818;stroke-width:0.5;"/><text fill="#000000" font-family="sans-serif" font-size="14" lengthAdjust="spacing" textLength="42" x="5" y="466.8857">&#24320;&#21457;&#32773;</text><ellipse cx="29" cy="478.6875" fill="#E2E2F0" rx="8" ry="8" style="stroke:#181818;stroke-width:0.5;"/><path d="M29,486.6875 L29,513.6875 M16,494.6875 L42,494.6875 M29,513.6875 L16,528.6875 M29,513.6875 L42,528.6875 " fill="none" style="stroke:#181818;stroke-width:0.5;"/><rect fill="#E2E2F0" height="30.2969" rx="2.5" ry="2.5" style="stroke:#181818;stroke-width:0.5;" width="115" x="63" y="50"/><text fill="#000000" font-family="sans-serif" font-size="14" lengthAdjust="spacing" textLength="101" x="70" y="69.9951">AppRepository</text><rect fill="#E2E2F0" height="30.2969" rx="2.5" ry="2.5" style="stroke:#181818;stroke-width:0.5;" width="115" x="63" y="453.8906"/><text fill="#000000" font-family="sans-serif" font-size="14" lengthAdjust="spacing" textLength="101" x="70" y="473.8857">AppRepository</text><rect fill="#E2E2F0" height="30.2969" rx="2.5" ry="2.5" style="stroke:#181818;stroke-width:0.5;" width="44" x="200.5" y="50"/><text fill="#000000" font-family="sans-serif" font-size="14" lengthAdjust="spacing" textLength="30" x="207.5" y="69.9951">OBS</text><rect fill="#E2E2F0" height="30.2969" rx="2.5" ry="2.5" style="stroke:#181818;stroke-width:0.5;" width="44" x="200.5" y="453.8906"/><text fill="#000000" font-family="sans-serif" font-size="14" lengthAdjust="spacing" textLength="30" x="207.5" y="473.8857">OBS</text><rect fill="#E2E2F0" height="30.2969" rx="2.5" ry="2.5" style="stroke:#181818;stroke-width:0.5;" width="48" x="254.5" y="50"/><text fill="#000000" font-family="sans-serif" font-size="14" lengthAdjust="spacing" textLength="34" x="261.5" y="69.9951">CICD</text><rect fill="#E2E2F0" height="30.2969" rx="2.5" ry="2.5" style="stroke:#181818;stroke-width:0.5;" width="48" x="254.5" y="453.8906"/><text fill="#000000" font-family="sans-serif" font-size="14" lengthAdjust="spacing" textLength="34" x="261.5" y="473.8857">CICD</text><text fill="#000000" font-family="sans-serif" font-size="14" lengthAdjust="spacing" textLength="42" x="352.5" y="77.9951">&#31649;&#29702;&#21592;</text><ellipse cx="376.5" cy="13.5" fill="#E2E2F0" rx="8" ry="8" style="stroke:#181818;stroke-width:0.5;"/><path d="M376.5,21.5 L376.5,48.5 M363.5,29.5 L389.5,29.5 M376.5,48.5 L363.5,63.5 M376.5,48.5 L389.5,63.5 " fill="none" style="stroke:#181818;stroke-width:0.5;"/><text fill="#000000" font-family="sans-serif" font-size="14" lengthAdjust="spacing" textLength="42" x="352.5" y="466.8857">&#31649;&#29702;&#21592;</text><ellipse cx="376.5" cy="478.6875" fill="#E2E2F0" rx="8" ry="8" style="stroke:#181818;stroke-width:0.5;"/><path d="M376.5,486.6875 L376.5,513.6875 M363.5,494.6875 L389.5,494.6875 M376.5,513.6875 L363.5,528.6875 M376.5,513.6875 L389.5,528.6875 " fill="none" style="stroke:#181818;stroke-width:0.5;"/><rect fill="#E2E2F0" height="30.2969" rx="2.5" ry="2.5" style="stroke:#181818;stroke-width:0.5;" width="57" x="410.5" y="50"/><text fill="#000000" font-family="sans-serif" font-size="14" lengthAdjust="spacing" textLength="43" x="417.5" y="69.9951">Stable</text><rect fill="#E2E2F0" height="30.2969" rx="2.5" ry="2.5" style="stroke:#181818;stroke-width:0.5;" width="57" x="410.5" y="453.8906"/><text fill="#000000" font-family="sans-serif" font-size="14" lengthAdjust="spacing" textLength="43" x="417.5" y="473.8857">Stable</text><polygon fill="#181818" points="108.5,108.4297,118.5,112.4297,108.5,116.4297,112.5,112.4297" style="stroke:#181818;stroke-width:1.0;"/><line style="stroke:#181818;stroke-width:1.0;" x1="29" x2="114.5" y1="112.4297" y2="112.4297"/><text fill="#000000" font-family="sans-serif" font-size="13" lengthAdjust="spacing" textLength="42" x="36" y="107.3638">&#25552;&#20132;PR</text><polygon fill="#181818" points="210.5,137.5625,220.5,141.5625,210.5,145.5625,214.5,141.5625" style="stroke:#181818;stroke-width:1.0;"/><line style="stroke:#181818;stroke-width:1.0;" x1="120.5" x2="216.5" y1="141.5625" y2="141.5625"/><text fill="#000000" font-family="sans-serif" font-size="13" lengthAdjust="spacing" textLength="78" x="127.5" y="136.4966">&#35302;&#21457;&#27979;&#35797;&#26500;&#24314;</text><path d="M53,156.5625 L117,156.5625 L117,163.6953 L107,173.6953 L53,173.6953 L53,156.5625 " fill="#EEEEEE" style="stroke:#000000;stroke-width:1.5;"/><rect fill="none" height="75.3984" style="stroke:#000000;stroke-width:1.5;" width="325" x="53" y="156.5625"/><text fill="#000000" font-family="sans-serif" font-size="13" font-weight="bold" lengthAdjust="spacing" textLength="19" x="68" y="169.6294">alt</text><text fill="#000000" font-family="sans-serif" font-size="11" font-weight="bold" lengthAdjust="spacing" textLength="241" x="132" y="168.7729">[&#30446;&#21069;&#27809;&#26377;&#26500;&#24314;&#23436;&#25104;&#30340;&#20107;&#20214;&#65292;&#21482;&#33021;&#25552;&#21069;&#25340;&#19979;&#36733;&#22320;&#22336;]</text><polygon fill="#181818" points="266.5,190.8281,276.5,194.8281,266.5,198.8281,270.5,194.8281" style="stroke:#181818;stroke-width:1.0;"/><line style="stroke:#181818;stroke-width:1.0;" x1="120.5" x2="272.5" y1="194.8281" y2="194.8281"/><text fill="#000000" font-family="sans-serif" font-size="13" lengthAdjust="spacing" textLength="68" x="127.5" y="189.7622">&#35302;&#21457;PR&#20107;&#20214;</text><polygon fill="#181818" points="131.5,219.9609,121.5,223.9609,131.5,227.9609,127.5,223.9609" style="stroke:#181818;stroke-width:1.0;"/><line style="stroke:#181818;stroke-width:1.0;" x1="125.5" x2="277.5" y1="223.9609" y2="223.9609"/><text fill="#000000" font-family="sans-serif" font-size="13" lengthAdjust="spacing" textLength="109" x="137.5" y="218.895">&#22238;&#22797;layer&#19979;&#36733;&#22320;&#22336;</text><polygon fill="#181818" points="131.5,256.0938,121.5,260.0938,131.5,264.0938,127.5,260.0938" style="stroke:#181818;stroke-width:1.0;"/><line style="stroke:#181818;stroke-width:1.0;" x1="125.5" x2="375.5" y1="260.0938" y2="260.0938"/><text fill="#000000" font-family="sans-serif" font-size="13" lengthAdjust="spacing" textLength="42" x="137.5" y="255.0278">&#23457;&#26597;PR</text><polygon fill="#181818" points="233.5,285.2266,223.5,289.2266,233.5,293.2266,229.5,289.2266" style="stroke:#181818;stroke-width:1.0;"/><line style="stroke:#181818;stroke-width:1.0;" x1="227.5" x2="375.5" y1="289.2266" y2="289.2266"/><text fill="#000000" font-family="sans-serif" font-size="13" lengthAdjust="spacing" textLength="130" x="239.5" y="284.1606">&#19979;&#36733;&#26500;&#24314;&#32467;&#26524;&#36827;&#34892;&#27979;&#35797;</text><polygon fill="#181818" points="131.5,314.3594,121.5,318.3594,131.5,322.3594,127.5,318.3594" style="stroke:#181818;stroke-width:1.0;"/><line style="stroke:#181818;stroke-width:1.0;" x1="125.5" x2="375.5" y1="318.3594" y2="318.3594"/><text fill="#000000" font-family="sans-serif" font-size="13" lengthAdjust="spacing" textLength="42" x="137.5" y="313.2935">&#21512;&#24182;PR</text><path d="M53,333.3594 L117,333.3594 L117,340.4922 L107,350.4922 L53,350.4922 L53,333.3594 " fill="#EEEEEE" style="stroke:#000000;stroke-width:1.5;"/><rect fill="none" height="104.5313" style="stroke:#000000;stroke-width:1.5;" width="424.5" x="53" y="333.3594"/><text fill="#000000" font-family="sans-serif" font-size="13" font-weight="bold" lengthAdjust="spacing" textLength="19" x="68" y="346.4263">alt</text><text fill="#000000" font-family="sans-serif" font-size="11" font-weight="bold" lengthAdjust="spacing" textLength="209" x="132" y="345.5698">[&#22914;&#26524;&#20462;&#25913;&#20102;linglong.yaml&#30340;version]</text><polygon fill="#181818" points="131.5,367.625,121.5,371.625,131.5,375.625,127.5,371.625" style="stroke:#181818;stroke-width:1.0;"/><line style="stroke:#181818;stroke-width:1.0;" x1="125.5" x2="277.5" y1="371.625" y2="371.625"/><text fill="#000000" font-family="sans-serif" font-size="13" lengthAdjust="spacing" textLength="47" x="137.5" y="366.5591">&#21019;&#24314;tag</text><polygon fill="#181818" points="210.5,396.7578,220.5,400.7578,210.5,404.7578,214.5,400.7578" style="stroke:#181818;stroke-width:1.0;"/><line style="stroke:#181818;stroke-width:1.0;" x1="120.5" x2="216.5" y1="400.7578" y2="400.7578"/><text fill="#000000" font-family="sans-serif" font-size="13" lengthAdjust="spacing" textLength="73" x="127.5" y="395.6919">&#35302;&#21457;tag&#26500;&#24314;</text><polygon fill="#181818" points="427,425.8906,437,429.8906,427,433.8906,431,429.8906" style="stroke:#181818;stroke-width:1.0;"/><line style="stroke:#181818;stroke-width:1.0;" x1="222.5" x2="433" y1="429.8906" y2="429.8906"/><text fill="#000000" font-family="sans-serif" font-size="13" lengthAdjust="spacing" textLength="52" x="229.5" y="424.8247">&#25512;&#36865;&#24212;&#29992;</text><!--SRC=[VL5DIiDW4Dtd5Bc07g0BGUl6bQKzmQU64eX9Q8EGNTHQMfAQ52E8YPL0hQMBA8B5veTU9lFbS-KL_99e8LYx6zwyUJFl3JfMf1OBaGRca6XNpAfYjtRONLckSxBKvYb7hR3Oj99WNAip9JmZ7kurAYnvdj1H_AwJbriywa0OC4XGsDJneJ_0Rnvs-mKCle5xLdhVIG8z2UTVaG7cZ5p6L3zZwb7oePCu1lSL7hI_owe7rVtVRRLweS5au9gJmHd1U20WbMkLH3dnX46vzTJtKgiBmpjcLQtJyJty-4IjbqYvxKAtS9Q6DtZaagL3FAC8OhEgrOF5dAhcGS7aWWudIn_RYoJe2hpO52InkQsYKu66TSQrshma_kkqvz035DJS-1tQ_taD1RDUGq570aT_UptzrCuXi5DxcgNp3G00]--></g></svg>