<svg xmlns="http://www.w3.org/2000/svg" xmlns:xlink="http://www.w3.org/1999/xlink" contentstyletype="text/css" height="446px" preserveAspectRatio="none" style="width:511px;height:446px;background:#FFFFFF;" version="1.1" viewBox="0 0 511 446" width="511px" zoomAndPan="magnify"><defs></defs><g><rect fill="none" height="104.5313" style="stroke:#000000;stroke-width:1.5;" width="452.5" x="53" y="243.9609"></rect><line style="stroke:#181818;stroke-width:0.5;stroke-dasharray:5.0,5.0;" x1="29" x2="29" y1="81.2969" y2="365.4922"></line><line style="stroke:#181818;stroke-width:0.5;stroke-dasharray:5.0,5.0;" x1="120" x2="120" y1="81.2969" y2="365.4922"></line><line style="stroke:#181818;stroke-width:0.5;stroke-dasharray:5.0,5.0;" x1="222.5" x2="222.5" y1="81.2969" y2="365.4922"></line><line style="stroke:#181818;stroke-width:0.5;stroke-dasharray:5.0,5.0;" x1="376.5" x2="376.5" y1="81.2969" y2="365.4922"></line><line style="stroke:#181818;stroke-width:0.5;stroke-dasharray:5.0,5.0;" x1="452.5" x2="452.5" y1="81.2969" y2="365.4922"></line><text fill="#000000" font-family="sans-serif" font-size="14" lengthAdjust="spacing" textLength="42" x="5" y="77.9951">开发者</text><ellipse cx="29" cy="13.5" fill="#E2E2F0" rx="8" ry="8" style="stroke:#181818;stroke-width:0.5;"></ellipse><path d="M29,21.5 L29,48.5 M16,29.5 L42,29.5 M29,48.5 L16,63.5 M29,48.5 L42,63.5 " fill="none" style="stroke:#181818;stroke-width:0.5;"></path><text fill="#000000" font-family="sans-serif" font-size="14" lengthAdjust="spacing" textLength="42" x="5" y="377.4873">开发者</text><ellipse cx="29" cy="389.2891" fill="#E2E2F0" rx="8" ry="8" style="stroke:#181818;stroke-width:0.5;"></ellipse><path d="M29,397.2891 L29,424.2891 M16,405.2891 L42,405.2891 M29,424.2891 L16,439.2891 M29,424.2891 L42,439.2891 " fill="none" style="stroke:#181818;stroke-width:0.5;"></path><rect fill="#E2E2F0" height="30.2969" rx="2.5" ry="2.5" style="stroke:#181818;stroke-width:0.5;" width="115" x="63" y="50"></rect><text fill="#000000" font-family="sans-serif" font-size="14" lengthAdjust="spacing" textLength="101" x="70" y="69.9951">AppRepository</text><rect fill="#E2E2F0" height="30.2969" rx="2.5" ry="2.5" style="stroke:#181818;stroke-width:0.5;" width="115" x="63" y="364.4922"></rect><text fill="#000000" font-family="sans-serif" font-size="14" lengthAdjust="spacing" textLength="101" x="70" y="384.4873">AppRepository</text><rect fill="#E2E2F0" height="30.2969" rx="2.5" ry="2.5" style="stroke:#181818;stroke-width:0.5;" width="48" x="198.5" y="50"></rect><text fill="#000000" font-family="sans-serif" font-size="14" lengthAdjust="spacing" textLength="34" x="205.5" y="69.9951">CICD</text><rect fill="#E2E2F0" height="30.2969" rx="2.5" ry="2.5" style="stroke:#181818;stroke-width:0.5;" width="48" x="198.5" y="364.4922"></rect><text fill="#000000" font-family="sans-serif" font-size="14" lengthAdjust="spacing" textLength="34" x="205.5" y="384.4873">CICD</text><text fill="#000000" font-family="sans-serif" font-size="14" lengthAdjust="spacing" textLength="42" x="352.5" y="77.9951">管理员</text><ellipse cx="376.5" cy="13.5" fill="#E2E2F0" rx="8" ry="8" style="stroke:#181818;stroke-width:0.5;"></ellipse><path d="M376.5,21.5 L376.5,48.5 M363.5,29.5 L389.5,29.5 M376.5,48.5 L363.5,63.5 M376.5,48.5 L389.5,63.5 " fill="none" style="stroke:#181818;stroke-width:0.5;"></path><text fill="#000000" font-family="sans-serif" font-size="14" lengthAdjust="spacing" textLength="42" x="352.5" y="377.4873">管理员</text><ellipse cx="376.5" cy="389.2891" fill="#E2E2F0" rx="8" ry="8" style="stroke:#181818;stroke-width:0.5;"></ellipse><path d="M376.5,397.2891 L376.5,424.2891 M363.5,405.2891 L389.5,405.2891 M376.5,424.2891 L363.5,439.2891 M376.5,424.2891 L389.5,439.2891 " fill="none" style="stroke:#181818;stroke-width:0.5;"></path><rect fill="#E2E2F0" height="30.2969" rx="2.5" ry="2.5" style="stroke:#181818;stroke-width:0.5;" width="85" x="410.5" y="50"></rect><text fill="#000000" font-family="sans-serif" font-size="14" lengthAdjust="spacing" textLength="71" x="417.5" y="69.9951">Stable仓库</text><rect fill="#E2E2F0" height="30.2969" rx="2.5" ry="2.5" style="stroke:#181818;stroke-width:0.5;" width="85" x="410.5" y="364.4922"></rect><text fill="#000000" font-family="sans-serif" font-size="14" lengthAdjust="spacing" textLength="71" x="417.5" y="384.4873">Stable仓库</text><polygon fill="#181818" points="108.5,108.4297,118.5,112.4297,108.5,116.4297,112.5,112.4297" style="stroke:#181818;stroke-width:1.0;"></polygon><line style="stroke:#181818;stroke-width:1.0;" x1="29" x2="114.5" y1="112.4297" y2="112.4297"></line><text fill="#000000" font-family="sans-serif" font-size="13" lengthAdjust="spacing" textLength="42" x="36" y="107.3638">提交PR</text><polygon fill="#181818" points="210.5,137.5625,220.5,141.5625,210.5,145.5625,214.5,141.5625" style="stroke:#181818;stroke-width:1.0;"></polygon><line style="stroke:#181818;stroke-width:1.0;" x1="120.5" x2="216.5" y1="141.5625" y2="141.5625"></line><text fill="#000000" font-family="sans-serif" font-size="13" lengthAdjust="spacing" textLength="78" x="127.5" y="136.4966">触发测试构建</text><polygon fill="#181818" points="131.5,166.6953,121.5,170.6953,131.5,174.6953,127.5,170.6953" style="stroke:#181818;stroke-width:1.0;"></polygon><line style="stroke:#181818;stroke-width:1.0;" x1="125.5" x2="375.5" y1="170.6953" y2="170.6953"></line><text fill="#000000" font-family="sans-serif" font-size="13" lengthAdjust="spacing" textLength="42" x="137.5" y="165.6294">审查PR</text><polygon fill="#181818" points="233.5,195.8281,223.5,199.8281,233.5,203.8281,229.5,199.8281" style="stroke:#181818;stroke-width:1.0;"></polygon><line style="stroke:#181818;stroke-width:1.0;" x1="227.5" x2="375.5" y1="199.8281" y2="199.8281"></line><text fill="#000000" font-family="sans-serif" font-size="13" lengthAdjust="spacing" textLength="130" x="239.5" y="194.7622">下载构建结果进行测试</text><polygon fill="#181818" points="131.5,224.9609,121.5,228.9609,131.5,232.9609,127.5,228.9609" style="stroke:#181818;stroke-width:1.0;"></polygon><line style="stroke:#181818;stroke-width:1.0;" x1="125.5" x2="375.5" y1="228.9609" y2="228.9609"></line><text fill="#000000" font-family="sans-serif" font-size="13" lengthAdjust="spacing" textLength="42" x="137.5" y="223.895">合并PR</text><path d="M53,243.9609 L117,243.9609 L117,251.0938 L107,261.0938 L53,261.0938 L53,243.9609 " fill="#EEEEEE" style="stroke:#000000;stroke-width:1.5;"></path><rect fill="none" height="104.5313" style="stroke:#000000;stroke-width:1.5;" width="452.5" x="53" y="243.9609"></rect><text fill="#000000" font-family="sans-serif" font-size="13" font-weight="bold" lengthAdjust="spacing" textLength="19" x="68" y="257.0278">alt</text><text fill="#000000" font-family="sans-serif" font-size="11" font-weight="bold" lengthAdjust="spacing" textLength="209" x="132" y="256.1714">[如果修改了linglong.yaml的version]</text><polygon fill="#181818" points="131.5,278.2266,121.5,282.2266,131.5,286.2266,127.5,282.2266" style="stroke:#181818;stroke-width:1.0;"></polygon><line style="stroke:#181818;stroke-width:1.0;" x1="125.5" x2="221.5" y1="282.2266" y2="282.2266"></line><text fill="#000000" font-family="sans-serif" font-size="13" lengthAdjust="spacing" textLength="47" x="137.5" y="277.1606">创建tag</text><polygon fill="#181818" points="210.5,307.3594,220.5,311.3594,210.5,315.3594,214.5,311.3594" style="stroke:#181818;stroke-width:1.0;"></polygon><line style="stroke:#181818;stroke-width:1.0;" x1="120.5" x2="216.5" y1="311.3594" y2="311.3594"></line><text fill="#000000" font-family="sans-serif" font-size="13" lengthAdjust="spacing" textLength="73" x="127.5" y="306.2935">触发tag构建</text><polygon fill="#181818" points="441,336.4922,451,340.4922,441,344.4922,445,340.4922" style="stroke:#181818;stroke-width:1.0;"></polygon><line style="stroke:#181818;stroke-width:1.0;" x1="222.5" x2="447" y1="340.4922" y2="340.4922"></line><text fill="#000000" font-family="sans-serif" font-size="13" lengthAdjust="spacing" textLength="52" x="229.5" y="335.4263">推送应用</text><!--SRC=[IqmkoIzIUBgduMd_n1SDhLnmbeAkdO9ZGK5GQa5-SIPGJQMLmhF-2KzsBGa8ua8H1obqzdHsiL9uiNmPKE-phTqlrazzDg_bwUvTN8bWuv-lM_XyGjlJYJEuu2minZzTj_3P_AL0ur4KGOn-igFxnTwz44EVxvxyRDwS5_jdlrZO0x4Clx4JEfxkt0OqbYinfqJXwR8ceEOd-zSzcxBpoQwsdCoyz9pyl7IzoiJSdEUpMifIYuepy_EuGBPYCwjZDj019Odf-8C0g03gVvWvmIM9IJcfJtPFVhfhCZ0W-rQyR6XykclAyoahk5BpKW00]--></g></svg>